<svg xmlns="http://www.w3.org/2000/svg" viewBox="0 0 147.36 20.83"><path d="M232.41,210.71c-2.62-.45-4.88,1.15-6.87,3s-4,6.5-2.06,7.32c2.33,1,4.49-1.44,4.85-3l-3.27.65a26.55,26.55,0,0,1,2.43-3.91,50.44,50.44,0,0,1,7.36-1.13c-2.08,5.59-6.93,12.12-11.83,12s-5.85-5-2.06-11.64a16.31,16.31,0,0,1,14.37-8.28A29.46,29.46,0,0,0,232.41,210.71Z" transform="translate(-218.63 -205.77)" style="fill:#edc10f"/><path d="M245,224.56a18.53,18.53,0,0,1-5.55,1.87c.55-1.89,2-5.42,2-5.42a16.74,16.74,0,0,0-3.84,1,13,13,0,0,0-1.75,3.36,11.68,11.68,0,0,1-5.36.82A112.2,112.2,0,0,1,241.86,208c3.07-1.39,8.88-2.06,8.88-2.06A170.64,170.64,0,0,0,245,224.56Zm-1.95-12.24a36.88,36.88,0,0,0-2.78,4.51s.41-.12,2.69-.43a24.26,24.26,0,0,0,1.75-4.66Z" transform="translate(-218.63 -205.77)" style="fill:#edc10f"/><path d="M262.31,214.38c1.85.15,4.34,2.79.65,6.1s-9.7,5.3-16.3,5.88c0,0,1.59-6.46,7.2-16.92,6.63-3.29,12.41-3.43,13.25-1.8S267.54,211.72,262.31,214.38Zm-7.9,3.48a36,36,0,0,0-1.51,3.7c2.35-.7,5.47-1.94,5.62-3.62C258.61,216.69,255.37,217.41,254.41,217.86Zm2.79-6.52c-.77,1.75-1.37,3-1.37,3,2.59-.7,4.37-1.88,4.7-3.12S257.8,211.12,257.2,211.34Z" transform="translate(-218.63 -205.77)" style="fill:#edc10f"/><path d="M269,225.47a24,24,0,0,1-5.06.72s1.27-2.11,5.57-8.37a95.29,95.29,0,0,1-1-9.65,31.8,31.8,0,0,1,4.71-1.9,36.21,36.21,0,0,0,.4,6.39s.92-1.23,3.89-4.61a29.17,29.17,0,0,1,6.72-1.49S277.62,213,269,225.47Z" transform="translate(-218.63 -205.77)" style="fill:#edc10f"/><path d="M301.79,210.71c-2.62-.45-4.87,1.15-6.86,3s-4,6.5-2.07,7.32c2.33,1,4.49-1.44,4.85-3l-3.26.65a27.09,27.09,0,0,1,2.42-3.91,50.55,50.55,0,0,1,7.37-1.13c-2.09,5.59-6.94,12.12-11.83,12s-5.86-5-2.07-11.64a16.31,16.31,0,0,1,14.38-8.28A29.13,29.13,0,0,0,301.79,210.71Z" transform="translate(-218.63 -205.77)" style="fill:#edc10f"/><path d="M311.08,219.09l2.3,5a7.78,7.78,0,0,1-4,1.88l-2.57-5.81L305,224.56a22,22,0,0,0-4.44,1.08,146.34,146.34,0,0,1,6.6-15.82c4.87-3.21,14.33-6,12.79-.09C319.93,209.73,318.78,215.22,311.08,219.09Zm-.22-7.32-2,4c4.61-2.26,5.33-4.1,5.33-4.1C314.87,209.87,312.18,211.1,310.86,211.77Z" transform="translate(-218.63 -205.77)" style="fill:#edc10f"/><path d="M327.33,224.2c-4.23,1-12,2.66-12.08.5-.05-2.4,3.82-10.92,6.48-15.64a24.5,24.5,0,0,1,5.16-1,55.6,55.6,0,0,0-5.35,10.82c-.5,1.66,1.06,1.06,3,.27a87.08,87.08,0,0,1,5.86-10.9,18,18,0,0,1,5.9-1.51A119.8,119.8,0,0,0,327.33,224.2Z" transform="translate(-218.63 -205.77)" style="fill:#edc10f"/><path d="M344.82,214.38c1.85.15,4.35,2.79.65,6.1s-9.7,5.3-16.3,5.88c0,0,1.59-6.46,7.2-16.92,6.63-3.29,12.41-3.43,13.25-1.8S350.05,211.72,344.82,214.38Zm-7.9,3.48a36,36,0,0,0-1.51,3.7c2.35-.7,5.47-1.94,5.62-3.62C341.12,216.69,337.88,217.41,336.92,217.86Zm2.79-6.52c-.77,1.75-1.37,3-1.37,3,2.59-.7,4.37-1.88,4.7-3.12S340.31,211.12,339.71,211.34Z" transform="translate(-218.63 -205.77)" style="fill:#edc10f"/><path d="M363.56,211.6a17.07,17.07,0,0,0-6.93,1.82c-2.35,1.37.43,1.76,2.35,2.45s3.6,1.75,1.56,4.61-6.62,5.26-11.45,6.12l.72-5.11a12.45,12.45,0,0,0,4.78-1.68c1.53-1,.41-1.73-2.35-2.07s-5.24-1.7-3.15-4.1c3.7-4.25,9.63-6.7,16.9-7.78Z" transform="translate(-218.63 -205.77)" style="fill:#edc10f"/></svg>