<svg xmlns="http://www.w3.org/2000/svg" viewBox="0 0 111.97 49.23"><polygon points="104.26 3.02 88.78 3.02 84.57 7.76 84.57 20.6 108.47 20.6 108.47 7.76 104.26 3.02" style="fill:#d88838"/><rect x="84.57" y="10.78" width="23.9" height="4.53" style="fill:#72481e"/><rect x="84.57" y="15.31" width="23.9" height="2.01" style="fill:#c73600"/><polygon points="88.9 10.78 95.39 14.05 101.93 10.78 88.9 10.78" style="fill:#fcd402"/><rect x="84.57" y="8.77" width="23.9" height="2.01" style="fill:#2b8838"/><rect x="132.02" y="63.74" width="0.25" height="0.39" transform="translate(-58.69 16.9) rotate(-30)" style="fill:#ffd79e"/><rect x="149.75" y="63.52" width="0.25" height="0.39" transform="translate(-56.21 25.74) rotate(-30)" style="fill:#ffd79e"/><rect x="134.66" y="61.6" width="0.39" height="0.25" transform="translate(-57.23 17.96) rotate(-30)" style="fill:#ffd79e"/><rect x="147.44" y="62.91" width="0.25" height="0.39" transform="translate(-56.22 24.5) rotate(-30)" style="fill:#ffd79e"/><rect x="134.69" y="63.23" width="0.25" height="0.39" transform="translate(-31.95 90.73) rotate(-60)" style="fill:#ffd79e"/><rect x="98.75" y="4.65" width="0.39" height="0.25" style="fill:#ffd79e"/><rect x="137.29" y="62.35" width="0.25" height="0.39" transform="translate(-29.89 92.54) rotate(-60)" style="fill:#ffd79e"/><rect x="96.3" y="5.84" width="0.39" height="0.25" style="fill:#ffd79e"/><rect x="138.18" y="63.86" width="0.39" height="0.25" transform="translate(-57.89 20.03) rotate(-30)" style="fill:#ffd79e"/><rect x="144.42" y="63.67" width="0.25" height="0.39" transform="matrix(0.87, -0.5, 0.5, 0.87, -57, 23.09)" style="fill:#ffd79e"/><rect x="140.45" y="61.35" width="0.39" height="0.25" transform="translate(-56.33 20.82) rotate(-30)" style="fill:#ffd79e"/><rect x="101.68" y="3.85" width="0.39" height="0.25" style="fill:#ffd79e"/><path d="M71.58,63.29l-6.27,1a19.33,19.33,0,0,0-2.47,4.56l5.42-.51-1.77,4.44-5.71,1a39.57,39.57,0,0,0-2.39,5.45,24.8,24.8,0,0,1-6,1.41s5.49-14.29,9.31-20.75A60.06,60.06,0,0,1,74,58.39Z" transform="translate(-44.43 -57.73)" style="fill:#ffb400"/><path d="M76.84,80c-4,1.07-9.36-.42-6.66-9S78.5,58.14,83.65,57.77c4.27-.28,6.94,3.74,4.8,9.71S80.81,78.89,76.84,80ZM75.43,70c-1.06,2.39-.59,6,2.48,4.39s8.13-11.19,4.36-11C79,63.59,76.31,68,75.43,70Z" transform="translate(-44.43 -57.73)" style="fill:#ffb400"/><path d="M95.88,80c-4,1.07-9.37-.42-6.67-9s8.32-12.88,13.47-13.25c4.28-.28,6.95,3.74,4.81,9.71S99.84,78.89,95.88,80ZM94.47,70c-1.07,2.39-.59,6,2.47,4.39s8.13-11.19,4.36-11C98.07,63.59,95.34,68,94.47,70Z" transform="translate(-44.43 -57.73)" style="fill:#ffb400"/><path d="M121.13,73.61c-4.81,6-11.17,8.66-16.26,6.24A188.29,188.29,0,0,1,114,59.26c2.7-1.6,8.86-2.36,10.85-.17S126,67.53,121.13,73.61Zm-4-9.31a69.1,69.1,0,0,0-5.29,10.37c4.5-1,6.8-5.17,7.48-7.08C120.09,65.37,118.74,64,117.11,64.3Z" transform="translate(-44.43 -57.73)" style="fill:#ffb400"/><path d="M56.78,98.16l2.7,5.88a9.11,9.11,0,0,1-4.67,2.19l-3-6.8-2.17,5.15a25.94,25.94,0,0,0-5.2,1.26,172.57,172.57,0,0,1,7.74-18.53c5.7-3.77,16.78-7,15-.11C67.15,87.2,65.8,93.64,56.78,98.16Zm-.26-8.57-2.39,4.72c5.4-2.64,6.25-4.81,6.25-4.81C61.22,87.36,58.07,88.8,56.52,89.59Z" transform="translate(-44.43 -57.73)" style="fill:#ffb400"/><path d="M78.88,88a12.73,12.73,0,0,0-4.16.54,23.43,23.43,0,0,0-2.08,3.85,19.76,19.76,0,0,1,5-.59l-2.5,4.58s-1.61.23-4.25.71a34.24,34.24,0,0,0-2,3.6,46.51,46.51,0,0,0,5.54-.57l-2.56,5a46.23,46.23,0,0,1-11.13,1.24s6-14.91,10.37-21.77c0,0,3.12-.59,10-1.26Z" transform="translate(-44.43 -57.73)" style="fill:#ffb400"/><path d="M85.74,103.79l-8.69,2.53S77,97.91,82.79,86a25.27,25.27,0,0,1,6.3-3.17A76.55,76.55,0,0,0,83.63,97.1l.76-.23a57.92,57.92,0,0,1,8.94-12.68s3.18-.42,7-.9C100.33,83.29,92.74,89.33,85.74,103.79Z" transform="translate(-44.43 -57.73)" style="fill:#ffb400"/><path d="M96.4,103.87a23.52,23.52,0,0,1-5.91,1.66s3.68-12.2,9.67-21.06A31.84,31.84,0,0,1,106.58,83,135.3,135.3,0,0,0,96.4,103.87Z" transform="translate(-44.43 -57.73)" style="fill:#ffb400"/><path d="M116.87,88a12.78,12.78,0,0,0-4.17.54,23.43,23.43,0,0,0-2.08,3.85,19.92,19.92,0,0,1,5-.59l-2.51,4.58s-1.6.23-4.24.71a31.91,31.91,0,0,0-2,3.6,46.51,46.51,0,0,0,5.54-.57l-2.56,5a46.26,46.26,0,0,1-11.14,1.24s6-14.91,10.38-21.77c0,0,3.12-.59,10-1.26Z" transform="translate(-44.43 -57.73)" style="fill:#ffb400"/><path d="M128.93,103.76a21.1,21.1,0,0,1-5.37,2.53,54.4,54.4,0,0,1,1.6-10.83,59.7,59.7,0,0,0-4.53,8.69,17.73,17.73,0,0,1-6,2.28c.87-4.81,3.06-14.71,6.41-21.37l5.42-1.72a38.94,38.94,0,0,0-3.34,9l7.22-8.63-.73,7.82s3.27-5.54,5.88-8.94l7.45-.79A130.67,130.67,0,0,0,128.93,103.76Z" transform="translate(-44.43 -57.73)" style="fill:#ffb400"/><path d="M153.56,89.39a20.14,20.14,0,0,0-8.13,2.14c-2.75,1.6.51,2,2.76,2.87s4.22,2,1.83,5.39S142.26,106,136.6,107l.85-6A14.52,14.52,0,0,0,143,99c1.8-1.16.48-2-2.75-2.42s-6.13-2-3.69-4.81c4.33-5,11.28-7.85,19.8-9.11Z" transform="translate(-44.43 -57.73)" style="fill:#ffb400"/></svg>