<svg xmlns="http://www.w3.org/2000/svg" viewBox="0 0 109.84 22.84"><path d="M56.55,100.06c0,1.35.19,2.67.19,4,0,3.74-2.48,6.15-6.23,6.15-1.68,0-4.8-.86-4.8-3a1.48,1.48,0,0,1,1.52-1.52c1.14,0,2.19,1.09,3.56,1.09,1.89,0,2.38-1.06,2.38-3.21A4.9,4.9,0,0,1,50,104.61c-3.31,0-5.3-2.69-5.3-5.84,0-4.1,2.33-7,6.57-7,3.07,0,5.6.85,5.6,4.39C56.89,97.48,56.55,98.77,56.55,100.06Zm-5.34-4.83a2.79,2.79,0,0,0-2.9,3.1c0,1.53.62,3,2.38,3,2,0,2.64-1.62,2.64-3.35C53.33,96,53.12,95.23,51.21,95.23Z" transform="translate(-44.72 -87.33)" style="fill:#ffb400"/><path d="M64.77,105.54c-4,0-6.4-2.53-6.4-6.53s1.91-7,6.32-7c4,0,6.33,2.43,6.33,6.67C71,102.34,68.88,105.54,64.77,105.54Zm2.61-6.69c0-1.81-.72-3.54-2.81-3.54-1.92,0-2.61,1.89-2.61,3.62s.87,3.2,2.66,3.2S67.38,100.56,67.38,98.85Z" transform="translate(-44.72 -87.33)" style="fill:#ffb400"/><path d="M85,98.77a6.28,6.28,0,0,1-6.53,6.62c-4,0-6.26-2.59-6.26-6.36,0-4.55,2.33-7.1,6.59-7.1C82.86,91.93,85,95,85,98.77ZM78.65,102c1.81,0,2.63-1.5,2.63-3s-.59-3.64-2.63-3.64a3.06,3.06,0,0,0-2.72,3.1C75.93,100,76.66,102,78.65,102Z" transform="translate(-44.72 -87.33)" style="fill:#ffb400"/><path d="M95.05,92.65v-.31c0-1-.28-2-.28-3a1.86,1.86,0,0,1,2-2c1.83,0,2.25,1.63,2.25,3.18,0,1.93-.21,5.81-.21,8.5,0,2.24.36,3,.36,4.34s-.8,2.11-2.3,2.11-1.57-1.47-2-1.47c-.21,0-.65.6-1.29,1a4.1,4.1,0,0,1-2.1.46c-3.61,0-5.14-3.2-5.14-6.38,0-3.93,2-6.9,5.82-6.9A7.25,7.25,0,0,1,95.05,92.65Zm.24,5.19A11,11,0,0,0,95.16,96a3.73,3.73,0,0,0-2.07-.65c-2,0-2.82,1.6-2.82,3.44,0,1.52.44,3.18,2.28,3.18C94.9,102,95.29,99.68,95.29,97.84Z" transform="translate(-44.72 -87.33)" style="fill:#ffb400"/><path d="M117.64,98.05c-1.19,1.91-5,1.21-6.82,1.63-.39.1-.62.28-.62.72,0,1.4,1.47,2,2.68,2,2.72,0,2.33-1.71,3.85-1.71a1.76,1.76,0,0,1,1.78,1.63c0,2.3-3.66,3.36-5.55,3.36-4.16,0-6.43-2.38-6.43-6.51,0-4.37,1.68-7.37,6.35-7.37,2.69,0,5.32,1.45,5.32,4.24A3.86,3.86,0,0,1,117.64,98.05Zm-3-2.17c0-1.06-1.47-1.29-2.22-1.29a2.07,2.07,0,0,0-2.17,2.17c0,.54.64.54,1.42.54C112.86,97.3,114.64,97.27,114.64,95.88Z" transform="translate(-44.72 -87.33)" style="fill:#ffb400"/><path d="M131.54,96.91c0,1.09-.21,2-.21,3s.7,1.86.7,3.18a2.12,2.12,0,0,1-2.41,2.4c-2,0-2-1.6-2.55-1.6-.36,0-.7,1.58-3.13,1.58-3.12,0-4.31-3.18-4.31-5.89,0-4.73,2.32-7.52,6.92-7.52C129.6,92.11,131.54,93.86,131.54,96.91Zm-6.62,5c2.35,0,3-2.35,3-4.67,0-1.22-.44-1.78-1.68-1.78-2,0-3,2-3,3.77C123.19,100.45,123.5,101.92,124.92,101.92Z" transform="translate(-44.72 -87.33)" style="fill:#ffb400"/><path d="M141.41,101.41c-.73,0-1.32.44-2,.44-1.19,0-1-1.71-1.06-2.87a16.15,16.15,0,0,1,.15-2.58c.08-.16.42-.16.6-.16.57,0,.9.08,1.5.08a2,2,0,0,0,2.19-2.09A1.62,1.62,0,0,0,141,92.55c-.57,0-1.16.13-1.7.13-.29,0-.52,0-.52-.34,0-.62.23-1.27.23-1.91A1.37,1.37,0,0,0,137.43,89c-1.45,0-2.3.59-2.3,2.11,0,.44.13.88.13,1.24,0,.6-1.47-.1-2.27,1.19a1.77,1.77,0,0,0-.21.91,1.86,1.86,0,0,0,2.07,1.86c0,1.39-.11,2.81-.11,4.21,0,2.66.62,5,3.9,5,2.38,0,4-.93,4-2.61C142.6,102.18,142.16,101.41,141.41,101.41Z" transform="translate(-44.72 -87.33)" style="fill:#ffb400"/><path d="M147.69,96a1,1,0,0,1,1.08-1c2.07,0,2.35,1.06,3.39,1.06.85,0,1.75-.44,1.75-1.4,0-2.27-2.58-2.76-4.54-2.76-2.56,0-5.12,1.21-5.12,4.1,0,2.46,2.17,3.62,4.75,3.91.65,0,2.12.33,2.12,1.21s-1,1.19-1.7,1.19c-2.53,0-2.33-1.86-3.85-1.86-1,0-1.55.72-1.55,1.88,0,1.88,2.15,2.89,4.07,3.11a2.11,2.11,0,0,1,3.31-1.69,2.08,2.08,0,0,1,3.12-2.27h0c0-.14,0-.29,0-.45C154.56,95.83,147.69,98.26,147.69,96Z" transform="translate(-44.72 -87.33)" style="fill:#ffb400"/></svg>